<svg width="61" height="60" viewBox="0 0 61 60" fill="none" xmlns="http://www.w3.org/2000/svg">
<g clip-path="url(#clip0)">
<rect width="60" height="60" transform="translate(0.645264)" fill="white"/>
<path d="M31.078 14.6077C30.8856 14.941 30.4045 14.941 30.212 14.6077L26.5414 8.24993C26.3489 7.9166 26.5895 7.49993 26.9744 7.49993L34.3157 7.49993C34.7006 7.49993 34.9411 7.9166 34.7487 8.24993L31.078 14.6077Z" fill="#778798"/>
<path d="M30.2123 45.3923C30.4047 45.059 30.8858 45.059 31.0783 45.3923L34.7489 51.7501C34.9414 52.0834 34.7008 52.5001 34.3159 52.5001L26.9746 52.5001C26.5897 52.5001 26.3492 52.0834 26.5416 51.7501L30.2123 45.3923Z" fill="#778798"/>
<path d="M41.8351 19.4222C41.4633 19.5218 41.1231 19.1816 41.2227 18.8099L43.1228 11.7187C43.2224 11.3469 43.6871 11.2224 43.9593 11.4946L49.1504 16.6856C49.4225 16.9578 49.298 17.4225 48.9262 17.5222L41.8351 19.4222Z" fill="#778798"/>
<path d="M19.4549 40.5777C19.8267 40.478 20.1669 40.8182 20.0673 41.19L18.1672 48.2812C18.0676 48.6529 17.6029 48.7775 17.3307 48.5053L12.1397 43.3142C11.8675 43.0421 11.992 42.5773 12.3638 42.4777L19.4549 40.5777Z" fill="#778798"/>
<path d="M46.0376 30.4329C45.7043 30.2404 45.7043 29.7593 46.0376 29.5669L52.3953 25.8962C52.7287 25.7038 53.1453 25.9443 53.1453 26.3292L53.1453 33.6705C53.1453 34.0554 52.7287 34.296 52.3953 34.1035L46.0376 30.4329Z" fill="#778798"/>
<path d="M15.2529 29.567C15.5863 29.7594 15.5863 30.2406 15.2529 30.433L8.89519 34.1037C8.56186 34.2961 8.14519 34.0555 8.14519 33.6706L8.14519 26.3294C8.14519 25.9445 8.56186 25.7039 8.89519 25.8963L15.2529 29.567Z" fill="#778798"/>
<path d="M41.223 41.1901C41.1234 40.8183 41.4636 40.4781 41.8354 40.5777L48.9265 42.4778C49.2983 42.5774 49.4229 43.0421 49.1507 43.3143L43.9596 48.5054C43.6875 48.7775 43.2227 48.653 43.1231 48.2812L41.223 41.1901Z" fill="#778798"/>
<path d="M20.0675 18.8097C20.1671 19.1815 19.8269 19.5217 19.4551 19.422L12.364 17.522C11.9922 17.4224 11.8677 16.9576 12.1398 16.6855L17.3309 11.4944C17.6031 11.2222 18.0678 11.3468 18.1674 11.7185L20.0675 18.8097Z" fill="#778798"/>
<path d="M24.3976 17.9166C24.9602 17.354 25.7232 17.038 26.5189 17.038L34.7716 17.038C35.5673 17.038 36.3303 17.354 36.8929 17.9166L42.7285 23.7522C43.2911 24.3148 43.6072 25.0779 43.6072 25.8735V34.1262C43.6072 34.9219 43.2911 35.6849 42.7285 36.2475L36.8929 42.0831C36.3303 42.6457 35.5673 42.9618 34.7716 42.9618H26.5189C25.7232 42.9618 24.9602 42.6457 24.3976 42.0831L18.562 36.2475C17.9994 35.6849 17.6833 34.9219 17.6833 34.1262L17.6833 25.8735C17.6833 25.0779 17.9994 24.3148 18.562 23.7522L24.3976 17.9166Z" fill="#FF0000"/>
<path d="M31.1745 39.6537L31.0251 35.3967C31.0251 34.9859 31.3612 34.9859 32.108 35.1353L35.5435 35.8075L35.0954 34.6872C34.946 34.2391 34.9087 33.9777 35.2448 33.6789L39.3151 30.3555L38.5682 29.9074C38.3442 29.758 38.3442 29.5713 38.4562 29.1979L39.203 26.7333L37.2239 27.144C36.6638 27.2561 36.5144 27.144 36.4024 26.8453L35.8422 25.725L33.9004 27.9282C33.5644 28.339 33.0789 28.0776 33.2283 27.4801L34.1618 22.9244L32.7428 23.7459C32.5188 23.8953 32.2574 23.9326 32.1454 23.6712L30.6143 20.6091L29.0833 23.6712C28.9339 23.9326 28.7099 23.8953 28.4858 23.7459L27.0668 22.9244L28.0004 27.4801C28.1497 28.0776 27.6643 28.339 27.3282 27.9282L25.3864 25.725L24.8263 26.8453C24.6769 27.144 24.5275 27.2934 24.0047 27.144L22.0256 26.7333L22.7724 29.1979C22.8845 29.5713 22.8845 29.758 22.6604 29.9074L21.9136 30.3555L25.9839 33.6789C26.32 33.9777 26.2826 34.2764 26.1333 34.6872L25.6851 35.8075L29.1206 35.1353C29.8675 34.9859 30.2036 34.9859 30.2036 35.3967L30.0542 39.6537H31.1745Z" fill="white"/>
</g>
<defs>
<clipPath id="clip0">
<rect width="60" height="60" fill="white" transform="translate(0.645264)"/>
</clipPath>
</defs>
</svg>
